<svg width="200" height="200" viewBox="0 0 200 200" fill="none" xmlns="http://www.w3.org/2000/svg">
<rect width="200" height="200" rx="100" fill="white"/>
<path d="M52.473 58.637L64.917 90.716C65.427 92.008 66.005 92.875 66.651 93.317C67.297 93.725 67.892 93.946 68.436 93.98V95C67.756 94.932 66.923 94.898 65.937 94.898C64.951 94.864 63.965 94.847 62.979 94.847C61.653 94.847 60.412 94.864 59.256 94.898C58.1 94.898 57.165 94.932 56.451 95V93.98C58.185 93.912 59.29 93.623 59.766 93.113C60.242 92.569 60.14 91.43 59.46 89.696L49.974 64.349L50.79 63.686L41.916 86.738C41.372 88.098 41.049 89.254 40.947 90.206C40.845 91.124 40.93 91.855 41.202 92.399C41.508 92.943 42.001 93.334 42.681 93.572C43.395 93.81 44.279 93.946 45.333 93.98V95C44.381 94.932 43.378 94.898 42.324 94.898C41.304 94.864 40.352 94.847 39.468 94.847C38.618 94.847 37.887 94.864 37.275 94.898C36.697 94.898 36.153 94.932 35.643 95V93.98C36.323 93.81 37.02 93.419 37.734 92.807C38.448 92.161 39.094 91.073 39.672 89.543L51.657 58.637C51.793 58.637 51.929 58.637 52.065 58.637C52.201 58.637 52.337 58.637 52.473 58.637ZM58.695 80.312V81.332H43.497L44.007 80.312H58.695ZM81.537 104.588C79.735 104.588 78.035 104.401 76.437 104.027C74.839 103.653 73.547 103.058 72.561 102.242C71.609 101.46 71.133 100.457 71.133 99.233C71.133 98.043 71.609 97.023 72.561 96.173C73.513 95.323 74.805 94.677 76.437 94.235L76.743 95.051C75.995 95.289 75.4 95.765 74.958 96.479C74.516 97.193 74.295 97.992 74.295 98.876C74.295 100.44 75.009 101.63 76.437 102.446C77.899 103.296 79.786 103.721 82.098 103.721C83.628 103.721 85.124 103.517 86.586 103.109C88.048 102.735 89.255 102.089 90.207 101.171C91.159 100.253 91.635 99.046 91.635 97.55C91.635 96.428 91.227 95.51 90.411 94.796C89.629 94.048 88.065 93.674 85.719 93.674H81.945C80.857 93.674 79.803 93.589 78.783 93.419C77.763 93.249 76.93 92.892 76.284 92.348C75.638 91.804 75.315 90.971 75.315 89.849C75.315 88.693 75.791 87.588 76.743 86.534C77.695 85.446 79.446 84.341 81.996 83.219L82.608 83.678C81.452 84.29 80.449 84.919 79.599 85.565C78.749 86.177 78.324 86.908 78.324 87.758C78.324 88.846 79.14 89.39 80.772 89.39H87.147C88.575 89.39 89.884 89.594 91.074 90.002C92.298 90.41 93.284 91.056 94.032 91.94C94.78 92.824 95.154 93.98 95.154 95.408C95.154 97.006 94.644 98.502 93.624 99.896C92.604 101.29 91.074 102.412 89.034 103.262C87.028 104.146 84.529 104.588 81.537 104.588ZM81.792 84.137C80.126 84.137 78.613 83.865 77.253 83.321C75.893 82.743 74.822 81.859 74.04 80.669C73.258 79.479 72.867 77.949 72.867 76.079C72.867 74.209 73.258 72.679 74.04 71.489C74.822 70.299 75.893 69.432 77.253 68.888C78.613 68.31 80.126 68.021 81.792 68.021C83.492 68.021 85.005 68.31 86.331 68.888C87.691 69.432 88.762 70.299 89.544 71.489C90.326 72.679 90.717 74.209 90.717 76.079C90.717 77.949 90.326 79.479 89.544 80.669C88.762 81.859 87.691 82.743 86.331 83.321C85.005 83.865 83.492 84.137 81.792 84.137ZM81.792 83.219C83.084 83.219 84.087 82.709 84.801 81.689C85.549 80.669 85.923 78.799 85.923 76.079C85.923 73.359 85.549 71.489 84.801 70.469C84.087 69.449 83.084 68.939 81.792 68.939C80.534 68.939 79.531 69.449 78.783 70.469C78.035 71.489 77.661 73.359 77.661 76.079C77.661 78.799 78.035 80.669 78.783 81.689C79.531 82.709 80.534 83.219 81.792 83.219ZM89.136 72.254L88.218 71.897C88.694 70.741 89.51 69.721 90.666 68.837C91.822 67.953 93.029 67.511 94.287 67.511C95.171 67.511 95.885 67.766 96.429 68.276C96.973 68.752 97.245 69.483 97.245 70.469C97.245 71.523 96.956 72.271 96.378 72.713C95.834 73.121 95.273 73.325 94.695 73.325C94.185 73.325 93.709 73.155 93.267 72.815C92.825 72.441 92.57 71.863 92.502 71.081C92.434 70.299 92.672 69.296 93.216 68.072L93.879 68.225C92.451 68.769 91.431 69.347 90.819 69.959C90.207 70.537 89.646 71.302 89.136 72.254ZM109.756 55.016V90.257C109.756 91.685 110.045 92.654 110.623 93.164C111.235 93.674 112.238 93.929 113.632 93.929V95C113.054 94.966 112.17 94.932 110.98 94.898C109.824 94.83 108.651 94.796 107.461 94.796C106.305 94.796 105.132 94.83 103.942 94.898C102.752 94.932 101.868 94.966 101.29 95V93.929C102.684 93.929 103.67 93.674 104.248 93.164C104.86 92.654 105.166 91.685 105.166 90.257V61.136C105.166 59.606 104.894 58.484 104.35 57.77C103.806 57.022 102.786 56.648 101.29 56.648V55.577C102.378 55.679 103.432 55.73 104.452 55.73C105.438 55.73 106.373 55.679 107.257 55.577C108.175 55.441 109.008 55.254 109.756 55.016ZM124.604 55.985C125.488 55.985 126.253 56.308 126.899 56.954C127.545 57.6 127.868 58.365 127.868 59.249C127.868 60.133 127.545 60.898 126.899 61.544C126.253 62.19 125.488 62.513 124.604 62.513C123.72 62.513 122.955 62.19 122.309 61.544C121.663 60.898 121.34 60.133 121.34 59.249C121.34 58.365 121.663 57.6 122.309 56.954C122.955 56.308 123.72 55.985 124.604 55.985ZM127.256 68.174V90.257C127.256 91.685 127.545 92.654 128.123 93.164C128.735 93.674 129.738 93.929 131.132 93.929V95C130.554 94.966 129.67 94.932 128.48 94.898C127.324 94.83 126.151 94.796 124.961 94.796C123.805 94.796 122.632 94.83 121.442 94.898C120.252 94.932 119.368 94.966 118.79 95V93.929C120.184 93.929 121.17 93.674 121.748 93.164C122.36 92.654 122.666 91.685 122.666 90.257V74.294C122.666 72.764 122.394 71.642 121.85 70.928C121.306 70.18 120.286 69.806 118.79 69.806V68.735C119.878 68.837 120.932 68.888 121.952 68.888C122.938 68.888 123.873 68.837 124.757 68.735C125.675 68.599 126.508 68.412 127.256 68.174ZM148.777 68.021C150.953 68.021 152.908 68.497 154.642 69.449C156.376 70.401 157.753 71.897 158.773 73.937C159.827 75.977 160.354 78.629 160.354 81.893C160.354 85.157 159.827 87.809 158.773 89.849C157.753 91.855 156.376 93.334 154.642 94.286C152.908 95.238 150.953 95.714 148.777 95.714C146.635 95.714 144.68 95.238 142.912 94.286C141.178 93.334 139.784 91.855 138.73 89.849C137.71 87.809 137.2 85.157 137.2 81.893C137.2 78.629 137.71 75.977 138.73 73.937C139.784 71.897 141.178 70.401 142.912 69.449C144.68 68.497 146.635 68.021 148.777 68.021ZM148.777 69.041C146.839 69.041 145.241 70.044 143.983 72.05C142.759 74.056 142.147 77.337 142.147 81.893C142.147 86.449 142.759 89.73 143.983 91.736C145.241 93.708 146.839 94.694 148.777 94.694C150.715 94.694 152.296 93.708 153.52 91.736C154.778 89.73 155.407 86.449 155.407 81.893C155.407 77.337 154.778 74.056 153.52 72.05C152.296 70.044 150.715 69.041 148.777 69.041Z" fill="black"/>
<path d="M42.587 109.218C43.6257 109.218 44.4867 109.341 45.17 109.587C45.8533 109.806 46.4137 110.093 46.851 110.448C47.2063 110.721 47.4933 111.022 47.712 111.35C47.9307 111.678 48.0947 112.006 48.204 112.334C48.3133 112.662 48.368 112.976 48.368 113.277C48.368 113.96 48.122 114.493 47.63 114.876C47.1653 115.259 46.646 115.45 46.072 115.45C45.5253 115.45 45.0333 115.272 44.596 114.917C44.1587 114.562 43.94 114.056 43.94 113.4C43.94 112.799 44.145 112.293 44.555 111.883C44.965 111.446 45.4843 111.2 46.113 111.145C46.0037 110.79 45.662 110.489 45.088 110.243C44.5413 109.97 43.8443 109.833 42.997 109.833C41.603 109.833 40.455 110.257 39.553 111.104C38.6783 111.924 38.241 113.127 38.241 114.712C38.241 115.477 38.3777 116.256 38.651 117.049C38.9517 117.842 39.512 118.621 40.332 119.386C40.7967 119.304 41.275 119.249 41.767 119.222C42.259 119.167 42.628 119.14 42.874 119.14C43.366 119.14 43.7623 119.222 44.063 119.386C44.3637 119.55 44.514 119.782 44.514 120.083C44.514 120.329 44.4047 120.52 44.186 120.657C43.9947 120.794 43.7213 120.862 43.366 120.862C42.8467 120.862 42.3 120.753 41.726 120.534C41.152 120.288 40.701 120.097 40.373 119.96C38.7877 120.425 37.503 121.19 36.519 122.256C35.535 123.295 35.043 124.771 35.043 126.684C35.043 128.57 35.535 130.169 36.519 131.481C37.503 132.793 38.815 133.804 40.455 134.515C42.1223 135.198 43.981 135.54 46.031 135.54C47.4797 135.54 48.8463 135.376 50.131 135.048C51.443 134.693 52.591 134.187 53.575 133.531C54.5863 132.875 55.379 132.096 55.953 131.194C56.527 130.265 56.814 129.212 56.814 128.037C56.814 127.518 56.7047 126.862 56.486 126.069C56.2673 125.249 55.8163 124.456 55.133 123.691C54.4497 122.898 53.3973 122.283 51.976 121.846L52.468 121.436C54.4633 122.037 55.8847 123.008 56.732 124.347C57.5793 125.659 58.003 127.135 58.003 128.775C58.003 130.415 57.511 131.987 56.527 133.49C55.543 134.993 54.1217 136.223 52.263 137.18C50.4043 138.109 48.1493 138.574 45.498 138.574C43.7213 138.574 42.0267 138.342 40.414 137.877C38.8287 137.412 37.421 136.743 36.191 135.868C34.961 134.966 33.9907 133.886 33.28 132.629C32.5693 131.372 32.214 129.95 32.214 128.365C32.214 126.889 32.501 125.632 33.075 124.593C33.649 123.527 34.3597 122.652 35.207 121.969C36.0543 121.286 36.9017 120.766 37.749 120.411C38.5963 120.028 39.2797 119.769 39.799 119.632C38.897 119.222 38.1317 118.744 37.503 118.197C36.9017 117.623 36.437 117.008 36.109 116.352C35.8083 115.669 35.658 114.999 35.658 114.343C35.658 113.687 35.8083 113.058 36.109 112.457C36.4097 111.828 36.847 111.268 37.421 110.776C37.995 110.284 38.7057 109.901 39.553 109.628C40.4277 109.355 41.439 109.218 42.587 109.218ZM57.511 108.398C59.2057 108.398 60.627 108.89 61.775 109.874C62.923 110.831 63.497 112.184 63.497 113.933C63.497 114.862 63.3193 115.696 62.964 116.434C62.636 117.145 62.1713 117.773 61.57 118.32C60.996 118.867 60.34 119.318 59.602 119.673C58.9733 119.974 58.1397 120.302 57.101 120.657C56.0897 121.012 54.9963 121.368 53.821 121.723C52.673 122.078 51.566 122.434 50.5 122.789C49.4613 123.117 48.614 123.404 47.958 123.65C46.9467 124.033 46.0857 124.511 45.375 125.085C44.6917 125.632 44.35 126.342 44.35 127.217C44.35 127.928 44.555 128.529 44.965 129.021C45.375 129.513 45.867 129.882 46.441 130.128C47.0423 130.374 47.6027 130.497 48.122 130.497C48.368 130.497 48.6687 130.47 49.024 130.415C49.4067 130.333 49.7483 130.224 50.049 130.087C50.3497 129.95 50.5273 129.786 50.582 129.595C50.1447 129.513 49.7073 129.322 49.27 129.021C48.86 128.693 48.655 128.187 48.655 127.504C48.655 126.848 48.8737 126.329 49.311 125.946C49.7483 125.563 50.2813 125.372 50.91 125.372C51.566 125.372 52.0853 125.577 52.468 125.987C52.878 126.397 53.083 126.93 53.083 127.586C53.083 128.351 52.8233 129.007 52.304 129.554C51.812 130.073 51.1833 130.47 50.418 130.743C49.68 130.989 48.942 131.112 48.204 131.112C47.4387 131.112 46.6597 130.948 45.867 130.62C45.0743 130.292 44.4183 129.786 43.899 129.103C43.3797 128.392 43.12 127.463 43.12 126.315C43.12 125.358 43.325 124.511 43.735 123.773C44.1723 123.035 44.8147 122.379 45.662 121.805C46.5093 121.231 47.548 120.739 48.778 120.329C49.598 120.056 50.5957 119.755 51.771 119.427C52.9463 119.099 54.149 118.744 55.379 118.361C56.6363 117.978 57.7707 117.555 58.782 117.09C60.1487 116.461 61.078 115.819 61.57 115.163C62.062 114.507 62.308 113.837 62.308 113.154C62.308 112.361 62.0893 111.664 61.652 111.063C61.2147 110.434 60.627 109.942 59.889 109.587C59.1783 109.204 58.3993 109.013 57.552 109.013C57.224 109.013 56.9507 109.04 56.732 109.095C56.5133 109.15 56.3767 109.245 56.322 109.382C56.7047 109.573 56.9917 109.847 57.183 110.202C57.3743 110.557 57.47 110.913 57.47 111.268C57.47 111.842 57.2377 112.32 56.773 112.703C56.3357 113.086 55.8027 113.277 55.174 113.277C54.6547 113.277 54.1627 113.113 53.698 112.785C53.2333 112.43 53.001 111.91 53.001 111.227C53.001 110.516 53.2333 109.956 53.698 109.546C54.19 109.136 54.7777 108.849 55.461 108.685C56.1717 108.494 56.855 108.398 57.511 108.398Z" fill="black"/>
<path d="M66.722 108.972C67.296 108.999 68.0477 109.027 68.977 109.054C69.9063 109.081 70.822 109.095 71.724 109.095C73.0087 109.095 74.2387 109.081 75.414 109.054C76.5893 109.027 77.423 109.013 77.915 109.013C81.2223 109.013 83.696 109.765 85.336 111.268C86.976 112.771 87.796 114.712 87.796 117.09C87.796 118.074 87.632 119.113 87.304 120.206C86.976 121.272 86.402 122.27 85.582 123.199C84.7893 124.101 83.696 124.839 82.302 125.413C80.908 125.987 79.145 126.274 77.013 126.274H73.077V125.454H76.603C78.5437 125.454 80.0197 125.085 81.031 124.347C82.0697 123.609 82.7667 122.639 83.122 121.436C83.5047 120.233 83.696 118.935 83.696 117.541C83.696 114.944 83.1767 113.004 82.138 111.719C81.1267 110.434 79.3773 109.792 76.89 109.792C75.6327 109.792 74.8127 110.024 74.43 110.489C74.0473 110.954 73.856 111.897 73.856 113.318V133.654C73.856 134.638 73.9517 135.376 74.143 135.868C74.3617 136.36 74.7717 136.688 75.373 136.852C75.9743 137.016 76.849 137.125 77.997 137.18V138C77.2863 137.945 76.3843 137.918 75.291 137.918C74.1977 137.891 73.0907 137.877 71.97 137.877C70.904 137.877 69.9063 137.891 68.977 137.918C68.0477 137.918 67.296 137.945 66.722 138V137.18C67.6513 137.125 68.3483 137.016 68.813 136.852C69.305 136.688 69.633 136.36 69.797 135.868C69.961 135.376 70.043 134.638 70.043 133.654V113.318C70.043 112.307 69.961 111.569 69.797 111.104C69.633 110.612 69.305 110.284 68.813 110.12C68.3483 109.929 67.6513 109.819 66.722 109.792V108.972ZM95.7141 138.287C94.5935 138.287 93.6231 138.082 92.8031 137.672C91.9831 137.235 91.3545 136.633 90.9171 135.868C90.5071 135.103 90.3021 134.214 90.3021 133.203C90.3021 132 90.5755 131.016 91.1221 130.251C91.6961 129.486 92.4205 128.871 93.2951 128.406C94.1698 127.941 95.0855 127.559 96.0421 127.258C97.0261 126.93 97.9555 126.629 98.8301 126.356C99.7048 126.055 100.415 125.714 100.962 125.331C101.536 124.948 101.823 124.443 101.823 123.814V121.272C101.823 120.124 101.645 119.249 101.29 118.648C100.962 118.047 100.511 117.65 99.9371 117.459C99.3631 117.24 98.7208 117.131 98.0101 117.131C97.3268 117.131 96.5888 117.227 95.7961 117.418C95.0308 117.609 94.4158 118.006 93.9511 118.607C94.4705 118.716 94.9215 118.99 95.3041 119.427C95.6868 119.864 95.8781 120.425 95.8781 121.108C95.8781 121.791 95.6595 122.338 95.2221 122.748C94.7848 123.131 94.2245 123.322 93.5411 123.322C92.7485 123.322 92.1608 123.076 91.7781 122.584C91.4228 122.065 91.2451 121.491 91.2451 120.862C91.2451 120.151 91.4228 119.577 91.7781 119.14C92.1335 118.703 92.5845 118.293 93.1311 117.91C93.7598 117.473 94.5661 117.104 95.5501 116.803C96.5615 116.475 97.6958 116.311 98.9531 116.311C100.074 116.311 101.03 116.448 101.823 116.721C102.616 116.967 103.272 117.336 103.791 117.828C104.502 118.484 104.966 119.29 105.185 120.247C105.404 121.176 105.513 122.297 105.513 123.609V135.007C105.513 135.69 105.609 136.182 105.8 136.483C106.019 136.784 106.347 136.934 106.784 136.934C107.085 136.934 107.372 136.866 107.645 136.729C107.918 136.592 108.246 136.374 108.629 136.073L109.08 136.77C108.506 137.207 107.959 137.576 107.44 137.877C106.921 138.15 106.224 138.287 105.349 138.287C104.556 138.287 103.9 138.15 103.381 137.877C102.862 137.604 102.465 137.207 102.192 136.688C101.946 136.141 101.823 135.458 101.823 134.638C101.085 135.868 100.197 136.784 99.1581 137.385C98.1468 137.986 96.9988 138.287 95.7141 138.287ZM97.1901 136.647C98.0921 136.647 98.9258 136.387 99.6911 135.868C100.484 135.349 101.194 134.57 101.823 133.531V125.495C101.495 125.96 101.017 126.356 100.388 126.684C99.7595 126.985 99.0761 127.299 98.3381 127.627C97.6001 127.928 96.8895 128.297 96.2061 128.734C95.5501 129.144 95.0035 129.691 94.5661 130.374C94.1288 131.057 93.9101 131.946 93.9101 133.039C93.9101 134.132 94.1971 135.007 94.7711 135.663C95.3725 136.319 96.1788 136.647 97.1901 136.647ZM117.651 116.311C118.744 116.311 119.674 116.489 120.439 116.844C121.204 117.199 121.765 117.527 122.12 117.828C123.022 118.566 123.569 118.074 123.76 116.352H124.703C124.648 117.117 124.607 118.033 124.58 119.099C124.553 120.138 124.539 121.545 124.539 123.322H123.596C123.432 122.311 123.145 121.327 122.735 120.37C122.352 119.413 121.778 118.634 121.013 118.033C120.248 117.404 119.25 117.09 118.02 117.09C117.063 117.09 116.257 117.363 115.601 117.91C114.972 118.429 114.658 119.208 114.658 120.247C114.658 121.067 114.904 121.778 115.396 122.379C115.888 122.953 116.53 123.5 117.323 124.019C118.116 124.511 118.977 125.058 119.906 125.659C120.945 126.315 121.888 126.985 122.735 127.668C123.582 128.351 124.252 129.103 124.744 129.923C125.263 130.743 125.523 131.713 125.523 132.834C125.523 134.091 125.195 135.144 124.539 135.991C123.883 136.838 123.022 137.481 121.956 137.918C120.917 138.355 119.769 138.574 118.512 138.574C117.911 138.574 117.337 138.519 116.79 138.41C116.271 138.328 115.765 138.191 115.273 138C115 137.863 114.713 137.699 114.412 137.508C114.139 137.317 113.865 137.112 113.592 136.893C113.319 136.674 113.073 136.688 112.854 136.934C112.635 137.153 112.471 137.604 112.362 138.287H111.419C111.474 137.412 111.515 136.346 111.542 135.089C111.569 133.832 111.583 132.164 111.583 130.087H112.526C112.717 131.618 112.991 132.957 113.346 134.105C113.701 135.253 114.262 136.155 115.027 136.811C115.792 137.44 116.858 137.754 118.225 137.754C118.772 137.754 119.318 137.631 119.865 137.385C120.439 137.139 120.917 136.729 121.3 136.155C121.683 135.581 121.874 134.816 121.874 133.859C121.874 132.656 121.437 131.672 120.562 130.907C119.687 130.142 118.58 129.335 117.241 128.488C116.257 127.859 115.328 127.231 114.453 126.602C113.606 125.973 112.909 125.263 112.362 124.47C111.843 123.677 111.583 122.721 111.583 121.6C111.583 120.37 111.856 119.372 112.403 118.607C112.977 117.814 113.729 117.24 114.658 116.885C115.587 116.502 116.585 116.311 117.651 116.311ZM135.251 110.079V116.926H141.319V117.746H135.251V133.613C135.251 134.898 135.483 135.8 135.948 136.319C136.413 136.838 137.055 137.098 137.875 137.098C138.695 137.098 139.406 136.77 140.007 136.114C140.608 135.431 141.128 134.296 141.565 132.711L142.385 132.916C142.112 134.501 141.565 135.841 140.745 136.934C139.952 138.027 138.722 138.574 137.055 138.574C136.126 138.574 135.36 138.451 134.759 138.205C134.158 137.986 133.625 137.658 133.16 137.221C132.559 136.592 132.135 135.841 131.889 134.966C131.67 134.091 131.561 132.93 131.561 131.481V117.746H127.625V116.926H131.561V110.653C132.244 110.626 132.9 110.571 133.529 110.489C134.158 110.407 134.732 110.27 135.251 110.079ZM148.966 138.287C147.845 138.287 146.875 138.082 146.055 137.672C145.235 137.235 144.606 136.633 144.169 135.868C143.759 135.103 143.554 134.214 143.554 133.203C143.554 132 143.827 131.016 144.374 130.251C144.948 129.486 145.672 128.871 146.547 128.406C147.422 127.941 148.337 127.559 149.294 127.258C150.278 126.93 151.207 126.629 152.082 126.356C152.957 126.055 153.667 125.714 154.214 125.331C154.788 124.948 155.075 124.443 155.075 123.814V121.272C155.075 120.124 154.897 119.249 154.542 118.648C154.214 118.047 153.763 117.65 153.189 117.459C152.615 117.24 151.973 117.131 151.262 117.131C150.579 117.131 149.841 117.227 149.048 117.418C148.283 117.609 147.668 118.006 147.203 118.607C147.722 118.716 148.173 118.99 148.556 119.427C148.939 119.864 149.13 120.425 149.13 121.108C149.13 121.791 148.911 122.338 148.474 122.748C148.037 123.131 147.476 123.322 146.793 123.322C146 123.322 145.413 123.076 145.03 122.584C144.675 122.065 144.497 121.491 144.497 120.862C144.497 120.151 144.675 119.577 145.03 119.14C145.385 118.703 145.836 118.293 146.383 117.91C147.012 117.473 147.818 117.104 148.802 116.803C149.813 116.475 150.948 116.311 152.205 116.311C153.326 116.311 154.282 116.448 155.075 116.721C155.868 116.967 156.524 117.336 157.043 117.828C157.754 118.484 158.218 119.29 158.437 120.247C158.656 121.176 158.765 122.297 158.765 123.609V135.007C158.765 135.69 158.861 136.182 159.052 136.483C159.271 136.784 159.599 136.934 160.036 136.934C160.337 136.934 160.624 136.866 160.897 136.729C161.17 136.592 161.498 136.374 161.881 136.073L162.332 136.77C161.758 137.207 161.211 137.576 160.692 137.877C160.173 138.15 159.476 138.287 158.601 138.287C157.808 138.287 157.152 138.15 156.633 137.877C156.114 137.604 155.717 137.207 155.444 136.688C155.198 136.141 155.075 135.458 155.075 134.638C154.337 135.868 153.449 136.784 152.41 137.385C151.399 137.986 150.251 138.287 148.966 138.287ZM150.442 136.647C151.344 136.647 152.178 136.387 152.943 135.868C153.736 135.349 154.446 134.57 155.075 133.531V125.495C154.747 125.96 154.269 126.356 153.64 126.684C153.011 126.985 152.328 127.299 151.59 127.627C150.852 127.928 150.141 128.297 149.458 128.734C148.802 129.144 148.255 129.691 147.818 130.374C147.381 131.057 147.162 131.946 147.162 133.039C147.162 134.132 147.449 135.007 148.023 135.663C148.624 136.319 149.431 136.647 150.442 136.647Z" fill="black"/>
</svg>
